<svg width="67" height="14" viewBox="0 0 67 14" fill="none" xmlns="http://www.w3.org/2000/svg">
<path d="M31.7645 11.5162C31.6472 11.5162 31.5539 11.4762 31.4845 11.3962C31.4152 11.3162 31.3805 11.2175 31.3805 11.1002V9.0682L29.7165 6.5562C29.6899 6.51887 29.6712 6.47887 29.6605 6.4362C29.6499 6.39354 29.6445 6.35087 29.6445 6.3082C29.6445 6.1962 29.6792 6.10287 29.7485 6.0282C29.8232 5.95354 29.9245 5.9162 30.0525 5.9162C30.1165 5.9162 30.1779 5.92954 30.2365 5.9562C30.3005 5.98287 30.3512 6.02554 30.3885 6.0842L31.7645 8.2682L33.1405 6.0842C33.1832 6.02554 33.2339 5.98287 33.2925 5.9562C33.3512 5.9242 33.4125 5.9082 33.4765 5.9082C33.5939 5.9082 33.6899 5.94554 33.7645 6.0202C33.8445 6.09487 33.8845 6.19087 33.8845 6.3082C33.8845 6.39887 33.8605 6.48154 33.8125 6.5562L32.1485 9.0682V11.1002C32.1485 11.2175 32.1139 11.3162 32.0445 11.3962C31.9752 11.4762 31.8819 11.5162 31.7645 11.5162Z" fill="#9C9C9C"/>
<path d="M25.524 11.516C25.396 11.516 25.2893 11.476 25.204 11.396C25.124 11.3107 25.084 11.2067 25.084 11.084V6.34802C25.084 6.22535 25.124 6.12402 25.204 6.04402C25.2893 5.95868 25.3933 5.91602 25.516 5.91602H27.108C27.3907 5.91602 27.6493 5.97735 27.884 6.10002C28.1187 6.21735 28.308 6.39335 28.452 6.62802C28.596 6.86268 28.668 7.15335 28.668 7.50002C28.668 7.80935 28.5987 8.05735 28.46 8.24402C28.3213 8.42535 28.1747 8.55335 28.02 8.62802C28.2813 8.71335 28.5 8.87068 28.676 9.10002C28.8573 9.32935 28.948 9.60402 28.948 9.92402C28.948 10.2227 28.8813 10.4947 28.748 10.74C28.62 10.98 28.4413 11.1693 28.212 11.308C27.9827 11.4467 27.7187 11.516 27.42 11.516H25.524ZM25.852 10.812H27.364C27.652 10.812 27.86 10.7347 27.988 10.58C28.116 10.42 28.18 10.2093 28.18 9.94802C28.18 9.77735 28.1507 9.62268 28.092 9.48402C28.0387 9.34535 27.948 9.23602 27.82 9.15602C27.692 9.07602 27.5213 9.03602 27.308 9.03602H25.852V10.812ZM25.852 8.33202H27.06C27.348 8.33202 27.5587 8.25468 27.692 8.10002C27.8307 7.94535 27.9 7.74535 27.9 7.50002C27.9 7.25468 27.8307 7.04668 27.692 6.87602C27.5587 6.70535 27.348 6.62002 27.06 6.62002H25.852V8.33202Z" fill="#9C9C9C"/>
<path d="M15.4261 11.516C15.3035 11.516 15.1995 11.476 15.1141 11.396C15.0341 11.3107 14.9941 11.2067 14.9941 11.084V6.34802C14.9941 6.22535 15.0341 6.12402 15.1141 6.04402C15.1995 5.95868 15.3035 5.91602 15.4261 5.91602H18.2581C18.3808 5.91602 18.4795 5.94268 18.5541 5.99602C18.6341 6.04402 18.6741 6.13468 18.6741 6.26802C18.6741 6.40135 18.6341 6.49468 18.5541 6.54802C18.4795 6.59602 18.3808 6.62002 18.2581 6.62002H15.7621V8.28402H17.6021C17.7248 8.28402 17.8208 8.31068 17.8901 8.36402C17.9648 8.41202 18.0021 8.50268 18.0021 8.63602C18.0021 8.76935 17.9648 8.86268 17.8901 8.91602C17.8208 8.96402 17.7248 8.98802 17.6021 8.98802H15.7621V10.812H18.3781C18.5008 10.812 18.6021 10.8387 18.6821 10.892C18.7621 10.94 18.8021 11.0307 18.8021 11.164C18.8021 11.2973 18.7621 11.3907 18.6821 11.444C18.6021 11.492 18.5008 11.516 18.3781 11.516H15.4261Z" fill="#9C9C9C"/>
<path d="M10.5533 11.516C10.4253 11.516 10.3186 11.476 10.2333 11.396C10.1533 11.3107 10.1133 11.2067 10.1133 11.084V6.34802C10.1133 6.22535 10.1533 6.12402 10.2333 6.04402C10.3186 5.95868 10.4226 5.91602 10.5453 5.91602H11.9053C12.2519 5.91602 12.5586 5.98535 12.8253 6.12402C13.0919 6.26268 13.3159 6.45735 13.4973 6.70802C13.6786 6.95868 13.8146 7.25468 13.9053 7.59602C14.0013 7.93735 14.0493 8.31068 14.0493 8.71602C14.0493 9.12135 14.0013 9.49468 13.9053 9.83602C13.8146 10.1773 13.6786 10.4733 13.4973 10.724C13.3159 10.9747 13.0919 11.1693 12.8253 11.308C12.5586 11.4467 12.2519 11.516 11.9053 11.516H10.5533ZM10.8813 10.812H11.9213C12.1453 10.812 12.3426 10.7613 12.5133 10.66C12.6839 10.5533 12.8253 10.4067 12.9373 10.22C13.0546 10.0333 13.1399 9.81202 13.1933 9.55602C13.2519 9.30002 13.2813 9.02002 13.2813 8.71602C13.2813 8.41202 13.2519 8.13202 13.1933 7.87602C13.1399 7.62002 13.0546 7.39868 12.9373 7.21202C12.8253 7.02535 12.6839 6.88135 12.5133 6.78002C12.3426 6.67335 12.1453 6.62002 11.9213 6.62002H10.8813V10.812Z" fill="#9C9C9C"/>
<path d="M5.18478 11.516C5.06745 11.516 4.97411 11.4813 4.90478 11.412C4.83545 11.3427 4.80078 11.2493 4.80078 11.132C4.80078 11.1053 4.80345 11.0787 4.80878 11.052C4.81411 11.02 4.82211 10.9853 4.83278 10.948L6.61678 6.26002C6.64878 6.18002 6.68878 6.10268 6.73678 6.02802C6.78478 5.95335 6.85945 5.91602 6.96078 5.91602C7.06745 5.91602 7.14211 5.95335 7.18478 6.02802C7.23278 6.10268 7.27278 6.18002 7.30478 6.26002L9.08878 10.948C9.09945 10.9853 9.10745 11.02 9.11278 11.052C9.11811 11.0787 9.12078 11.1053 9.12078 11.132C9.12078 11.2493 9.08611 11.3427 9.01678 11.412C8.94745 11.4813 8.85412 11.516 8.73678 11.516C8.65678 11.516 8.58745 11.4947 8.52878 11.452C8.47011 11.4093 8.42211 11.3427 8.38478 11.252L7.85678 9.90802H6.06478L5.53678 11.252C5.49945 11.3427 5.45145 11.4093 5.39278 11.452C5.33411 11.4947 5.26478 11.516 5.18478 11.516ZM6.32878 9.20402H7.59278L6.96078 7.38002L6.32878 9.20402Z" fill="#9C9C9C"/>
<path d="M0.384 11.516C0.256 11.516 0.16 11.476 0.096 11.396C0.032 11.3107 0 11.2067 0 11.084V6.34002C0 6.21735 0.032 6.11602 0.096 6.03602C0.16 5.95602 0.253333 5.91602 0.376 5.91602C0.482667 5.91602 0.56 5.93735 0.608 5.98002C0.656 6.01735 0.693333 6.06535 0.72 6.12402L2 8.62802L3.28 6.12402C3.30667 6.06535 3.344 6.01735 3.392 5.98002C3.44533 5.93735 3.52267 5.91602 3.624 5.91602C3.74667 5.91602 3.84 5.95602 3.904 6.03602C3.968 6.11602 4 6.21735 4 6.34002V11.084C4 11.2067 3.968 11.3107 3.904 11.396C3.84 11.476 3.744 11.516 3.616 11.516C3.488 11.516 3.392 11.476 3.328 11.396C3.264 11.3107 3.232 11.2067 3.232 11.084V7.67602L2.336 9.42802C2.30933 9.48135 2.26933 9.52935 2.216 9.57202C2.16267 9.61468 2.09067 9.63602 2 9.63602C1.91467 9.63602 1.84267 9.61468 1.784 9.57202C1.73067 9.52935 1.69067 9.48135 1.664 9.42802L0.768 7.67602V11.084C0.768 11.2067 0.736 11.3107 0.672 11.396C0.608 11.476 0.512 11.516 0.384 11.516Z" fill="#9C9C9C"/>
<path d="M62.1348 13.4242C61.7508 13.4242 61.4254 13.3549 61.1588 13.2162C60.8921 13.0669 60.6788 12.8856 60.5188 12.6722C60.3588 12.4589 60.2414 12.2509 60.1668 12.0482C59.8361 12.0482 59.5161 11.9629 59.2068 11.7922C58.8974 11.6216 58.6414 11.3816 58.4388 11.0722C58.2361 10.7629 58.1348 10.4056 58.1348 10.0002C58.1348 9.47755 58.3108 9.01889 58.6628 8.62422C58.3108 8.21889 58.1348 7.76022 58.1348 7.24822C58.1348 6.83222 58.2361 6.47489 58.4388 6.17622C58.6414 5.86689 58.8974 5.62689 59.2068 5.45622C59.5161 5.28555 59.8361 5.20022 60.1668 5.20022C60.2414 4.99755 60.3588 4.78955 60.5188 4.57622C60.6788 4.36289 60.8921 4.18689 61.1588 4.04822C61.4254 3.89889 61.7508 3.82422 62.1348 3.82422C62.5081 3.82422 62.8281 3.89889 63.0948 4.04822C63.3614 4.18689 63.5801 4.36289 63.7508 4.57622C63.9214 4.78955 64.0388 4.99755 64.1028 5.20022C64.4334 5.20022 64.7534 5.28555 65.0628 5.45622C65.3721 5.62689 65.6281 5.86689 65.8308 6.17622C66.0334 6.47489 66.1348 6.83222 66.1348 7.24822C66.1348 7.76022 65.9588 8.21889 65.6068 8.62422C65.9588 9.01889 66.1348 9.47755 66.1348 10.0002C66.1348 10.4056 66.0334 10.7629 65.8308 11.0722C65.6281 11.3816 65.3721 11.6216 65.0628 11.7922C64.7534 11.9629 64.4334 12.0482 64.1028 12.0482C64.0388 12.2509 63.9214 12.4589 63.7508 12.6722C63.5801 12.8856 63.3614 13.0669 63.0948 13.2162C62.8281 13.3549 62.5081 13.4242 62.1348 13.4242ZM59.2548 10.0162C59.2548 10.2936 59.3454 10.5176 59.5268 10.6882C59.7188 10.8482 59.9321 10.9282 60.1668 10.9282C60.3161 10.9282 60.4441 10.9122 60.5508 10.8802C60.6681 10.8482 60.7854 10.8696 60.9028 10.9442C61.0841 11.0616 61.1748 11.2162 61.1748 11.4082C61.1748 11.6429 61.2601 11.8509 61.4308 12.0322C61.6121 12.2136 61.8468 12.3042 62.1348 12.3042C62.4014 12.3042 62.6254 12.2136 62.8068 12.0322C62.9988 11.8509 63.0948 11.6429 63.0948 11.4082C63.0948 11.3229 63.1161 11.2376 63.1588 11.1522C63.2014 11.0669 63.2654 11.0029 63.3508 10.9602C63.4894 10.8749 63.6068 10.8482 63.7028 10.8802C63.8094 10.9122 63.9428 10.9282 64.1028 10.9282C64.3374 10.9282 64.5454 10.8482 64.7268 10.6882C64.9188 10.5176 65.0148 10.2936 65.0148 10.0162C65.0148 9.83489 64.9614 9.66422 64.8548 9.50422C64.7481 9.33355 64.6041 9.21622 64.4228 9.15222C64.1881 9.06689 64.0708 8.89089 64.0708 8.62422C64.0708 8.35755 64.1881 8.18155 64.4228 8.09622C64.6041 8.03222 64.7481 7.92022 64.8548 7.76022C64.9614 7.58955 65.0148 7.41355 65.0148 7.23222C65.0148 6.95489 64.9188 6.73622 64.7268 6.57622C64.5454 6.40555 64.3374 6.32022 64.1028 6.32022C63.9321 6.32022 63.7934 6.33622 63.6868 6.36822C63.5801 6.40022 63.4574 6.36822 63.3188 6.27222C63.1694 6.15489 63.0948 6.01089 63.0948 5.84022C63.0948 5.59489 62.9988 5.38689 62.8068 5.21622C62.6254 5.03489 62.4014 4.94422 62.1348 4.94422C61.8468 4.94422 61.6121 5.03489 61.4308 5.21622C61.2601 5.38689 61.1748 5.59489 61.1748 5.84022C61.1748 5.91489 61.1534 5.99489 61.1108 6.08022C61.0788 6.15489 61.0254 6.21889 60.9508 6.27222C60.8121 6.36822 60.6894 6.40022 60.5828 6.36822C60.4761 6.33622 60.3374 6.32022 60.1668 6.32022C59.9321 6.32022 59.7188 6.40555 59.5268 6.57622C59.3454 6.73622 59.2548 6.95489 59.2548 7.23222C59.2548 7.41355 59.3081 7.58955 59.4148 7.76022C59.5214 7.92022 59.6654 8.03222 59.8468 8.09622C60.0814 8.18155 60.1988 8.35755 60.1988 8.62422C60.1988 8.89089 60.0814 9.06689 59.8468 9.15222C59.6654 9.21622 59.5214 9.33355 59.4148 9.50422C59.3081 9.66422 59.2548 9.83489 59.2548 10.0162Z" fill="white"/>
<path d="M49.5538 13.424C49.4044 13.424 49.2764 13.3707 49.1698 13.264C49.0631 13.1467 49.0098 13.0133 49.0098 12.864C49.0098 12.7147 49.0631 12.5867 49.1698 12.48C49.2764 12.3627 49.4044 12.304 49.5538 12.304H52.4018V4.384C52.4018 4.23467 52.4551 4.10667 52.5618 4C52.6791 3.89333 52.8124 3.84 52.9618 3.84H56.4498C56.5991 3.84 56.7271 3.89333 56.8338 4C56.9511 4.10667 57.0098 4.23467 57.0098 4.384C57.0098 4.53333 56.9511 4.66667 56.8338 4.784C56.7271 4.89067 56.5991 4.944 56.4498 4.944H53.5058V12.304H56.2738C56.4231 12.304 56.5511 12.3627 56.6578 12.48C56.7751 12.5867 56.8338 12.7147 56.8338 12.864C56.8338 13.0133 56.7751 13.1467 56.6578 13.264C56.5511 13.3707 56.4231 13.424 56.2738 13.424H49.5538ZM52.0178 1.184C52.0178 0.853333 52.1298 0.576 52.3538 0.352C52.5884 0.117333 52.8711 0 53.2018 0C53.5324 0 53.8151 0.117333 54.0498 0.352C54.2844 0.576 54.4018 0.853333 54.4018 1.184C54.4018 1.51467 54.2844 1.79733 54.0498 2.032C53.8151 2.256 53.5324 2.368 53.2018 2.368C52.8711 2.368 52.5884 2.256 52.3538 2.032C52.1298 1.79733 52.0178 1.51467 52.0178 1.184Z" fill="white"/>
<path d="M43.8848 13.4242C43.5008 13.4242 43.1754 13.3549 42.9088 13.2162C42.6421 13.0669 42.4288 12.8856 42.2688 12.6722C42.1088 12.4589 41.9914 12.2509 41.9168 12.0482C41.5861 12.0482 41.2661 11.9629 40.9568 11.7922C40.6474 11.6216 40.3914 11.3816 40.1888 11.0722C39.9861 10.7629 39.8848 10.4056 39.8848 10.0002C39.8848 9.47755 40.0608 9.01889 40.4128 8.62422C40.0608 8.21889 39.8848 7.76022 39.8848 7.24822C39.8848 6.83222 39.9861 6.47489 40.1888 6.17622C40.3914 5.86689 40.6474 5.62689 40.9568 5.45622C41.2661 5.28555 41.5861 5.20022 41.9168 5.20022C41.9914 4.99755 42.1088 4.78955 42.2688 4.57622C42.4288 4.36289 42.6421 4.18689 42.9088 4.04822C43.1754 3.89889 43.5008 3.82422 43.8848 3.82422C44.2581 3.82422 44.5781 3.89889 44.8448 4.04822C45.1114 4.18689 45.3301 4.36289 45.5008 4.57622C45.6714 4.78955 45.7888 4.99755 45.8528 5.20022C46.1834 5.20022 46.5034 5.28555 46.8128 5.45622C47.1221 5.62689 47.3781 5.86689 47.5808 6.17622C47.7834 6.47489 47.8848 6.83222 47.8848 7.24822C47.8848 7.76022 47.7088 8.21889 47.3568 8.62422C47.7088 9.01889 47.8848 9.47755 47.8848 10.0002C47.8848 10.4056 47.7834 10.7629 47.5808 11.0722C47.3781 11.3816 47.1221 11.6216 46.8128 11.7922C46.5034 11.9629 46.1834 12.0482 45.8528 12.0482C45.7888 12.2509 45.6714 12.4589 45.5008 12.6722C45.3301 12.8856 45.1114 13.0669 44.8448 13.2162C44.5781 13.3549 44.2581 13.4242 43.8848 13.4242ZM41.0048 10.0162C41.0048 10.2936 41.0954 10.5176 41.2768 10.6882C41.4688 10.8482 41.6821 10.9282 41.9168 10.9282C42.0661 10.9282 42.1941 10.9122 42.3008 10.8802C42.4181 10.8482 42.5354 10.8696 42.6528 10.9442C42.8341 11.0616 42.9248 11.2162 42.9248 11.4082C42.9248 11.6429 43.0101 11.8509 43.1808 12.0322C43.3621 12.2136 43.5968 12.3042 43.8848 12.3042C44.1514 12.3042 44.3754 12.2136 44.5568 12.0322C44.7488 11.8509 44.8448 11.6429 44.8448 11.4082C44.8448 11.3229 44.8661 11.2376 44.9088 11.1522C44.9514 11.0669 45.0154 11.0029 45.1008 10.9602C45.2394 10.8749 45.3568 10.8482 45.4528 10.8802C45.5594 10.9122 45.6928 10.9282 45.8528 10.9282C46.0874 10.9282 46.2954 10.8482 46.4768 10.6882C46.6688 10.5176 46.7648 10.2936 46.7648 10.0162C46.7648 9.83489 46.7114 9.66422 46.6048 9.50422C46.4981 9.33355 46.3541 9.21622 46.1728 9.15222C45.9381 9.06689 45.8208 8.89089 45.8208 8.62422C45.8208 8.35755 45.9381 8.18155 46.1728 8.09622C46.3541 8.03222 46.4981 7.92022 46.6048 7.76022C46.7114 7.58955 46.7648 7.41355 46.7648 7.23222C46.7648 6.95489 46.6688 6.73622 46.4768 6.57622C46.2954 6.40555 46.0874 6.32022 45.8528 6.32022C45.6821 6.32022 45.5434 6.33622 45.4368 6.36822C45.3301 6.40022 45.2074 6.36822 45.0688 6.27222C44.9194 6.15489 44.8448 6.01089 44.8448 5.84022C44.8448 5.59489 44.7488 5.38689 44.5568 5.21622C44.3754 5.03489 44.1514 4.94422 43.8848 4.94422C43.5968 4.94422 43.3621 5.03489 43.1808 5.21622C43.0101 5.38689 42.9248 5.59489 42.9248 5.84022C42.9248 5.91489 42.9034 5.99489 42.8608 6.08022C42.8288 6.15489 42.7754 6.21889 42.7008 6.27222C42.5621 6.36822 42.4394 6.40022 42.3328 6.36822C42.2261 6.33622 42.0874 6.32022 41.9168 6.32022C41.6821 6.32022 41.4688 6.40555 41.2768 6.57622C41.0954 6.73622 41.0048 6.95489 41.0048 7.23222C41.0048 7.41355 41.0581 7.58955 41.1648 7.76022C41.2714 7.92022 41.4154 8.03222 41.5968 8.09622C41.8314 8.18155 41.9488 8.35755 41.9488 8.62422C41.9488 8.89089 41.8314 9.06689 41.5968 9.15222C41.4154 9.21622 41.2714 9.33355 41.1648 9.50422C41.0581 9.66422 41.0048 9.83489 41.0048 10.0162Z" fill="white"/>
</svg>
