<svg width="12" height="12" viewBox="0 0 12 12" fill="none" xmlns="http://www.w3.org/2000/svg">
<path d="M6 7.624C5.94633 7.624 5.89667 7.61517 5.851 7.5975C5.80533 7.57984 5.76083 7.54917 5.7175 7.5055L4.4075 6.196C4.35883 6.14734 4.3335 6.09 4.3315 6.024C4.3295 5.958 4.35483 5.8975 4.4075 5.8425C4.46283 5.78717 4.52233 5.759 4.586 5.758C4.65 5.757 4.7095 5.78417 4.7645 5.8395L5.75 6.825V2.75C5.75 2.679 5.77383 2.6195 5.8215 2.5715C5.86917 2.5235 5.92867 2.49967 6 2.5C6.07133 2.50034 6.13083 2.52417 6.1785 2.5715C6.22617 2.61884 6.25 2.67834 6.25 2.75V6.825L7.2355 5.8395C7.28417 5.79084 7.342 5.76534 7.409 5.763C7.476 5.76067 7.537 5.78717 7.592 5.8425C7.64533 5.8975 7.6725 5.9565 7.6735 6.0195C7.6745 6.0825 7.6475 6.14134 7.5925 6.196L6.2825 7.506C6.23917 7.54934 6.19467 7.57984 6.149 7.5975C6.10367 7.61517 6.054 7.624 6 7.624ZM3.308 9.5C3.07767 9.5 2.8855 9.423 2.7315 9.269C2.5775 9.115 2.50033 8.92267 2.5 8.692V7.7305C2.5 7.6595 2.52383 7.60017 2.5715 7.5525C2.61917 7.50484 2.67867 7.48084 2.75 7.4805C2.82133 7.48017 2.88083 7.50417 2.9285 7.5525C2.97617 7.60084 3 7.66017 3 7.7305V8.692C3 8.769 3.032 8.83967 3.096 8.904C3.16 8.96834 3.2305 9.00034 3.3075 9H8.6925C8.76917 9 8.83967 8.968 8.904 8.904C8.96833 8.84 9.00033 8.76934 9 8.692V7.7305C9 7.6595 9.02383 7.60017 9.0715 7.5525C9.11917 7.50484 9.17867 7.48084 9.25 7.4805C9.32133 7.48017 9.38083 7.50417 9.4285 7.5525C9.47617 7.60084 9.5 7.66017 9.5 7.7305V8.692C9.5 8.92234 9.423 9.1145 9.269 9.2685C9.115 9.4225 8.92267 9.49967 8.692 9.5H3.308Z" fill="white" stroke="white" stroke-width="0.27"/>
</svg>
