<svg width="14" height="14" viewBox="0 0 14 14" fill="none" xmlns="http://www.w3.org/2000/svg">
<path d="M8.25469 1.49187C8.25469 1.07127 7.91389 0.730469 7.49329 0.730469H6.61669C6.19549 0.730469 5.85469 1.07127 5.85469 1.49187C5.85469 1.83867 5.61709 2.13627 5.29369 2.26347C5.24249 2.28427 5.19189 2.30547 5.14189 2.32707C4.82329 2.46507 4.44469 2.42307 4.19869 2.17767C4.05584 2.03514 3.86228 1.9551 3.66049 1.9551C3.45869 1.9551 3.26514 2.03514 3.12229 2.17767L2.50189 2.79807C2.35936 2.94092 2.27932 3.13448 2.27932 3.33627C2.27932 3.53806 2.35936 3.73162 2.50189 3.87447C2.74789 4.12047 2.78989 4.49847 2.65069 4.81767C2.62882 4.86791 2.60782 4.91851 2.58769 4.96947C2.46049 5.29287 2.16289 5.53047 1.81609 5.53047C1.39549 5.53047 1.05469 5.87127 1.05469 6.29187V7.16907C1.05469 7.58967 1.39549 7.93047 1.81609 7.93047C2.16289 7.93047 2.46049 8.16807 2.58769 8.49147C2.60849 8.54267 2.62949 8.59327 2.65069 8.64327C2.78929 8.96187 2.74729 9.34047 2.50189 9.58647C2.35936 9.72932 2.27932 9.92288 2.27932 10.1247C2.27932 10.3265 2.35936 10.52 2.50189 10.6629L3.12229 11.2833C3.26514 11.4258 3.45869 11.5058 3.66049 11.5058C3.86228 11.5058 4.05584 11.4258 4.19869 11.2833C4.44469 11.0373 4.82269 10.9953 5.14189 11.1339C5.19189 11.1559 5.24249 11.1771 5.29369 11.1975C5.61709 11.3247 5.85469 11.6223 5.85469 11.9691C5.85469 12.3897 6.19549 12.7305 6.61609 12.7305H7.49329C7.91389 12.7305 8.25469 12.3897 8.25469 11.9691C8.25469 11.6223 8.49229 11.3247 8.81569 11.1969C8.86689 11.1769 8.91749 11.1561 8.96749 11.1345C9.28609 10.9953 9.66469 11.0379 9.91009 11.2833C10.053 11.426 10.2466 11.5061 10.4486 11.5061C10.6505 11.5061 10.8442 11.426 10.9871 11.2833L11.6075 10.6629C11.75 10.52 11.8301 10.3265 11.8301 10.1247C11.8301 9.92288 11.75 9.72932 11.6075 9.58647C11.3615 9.34047 11.3195 8.96247 11.4581 8.64327C11.4801 8.59327 11.5013 8.54267 11.5217 8.49147C11.6489 8.16807 11.9465 7.93047 12.2933 7.93047C12.7139 7.93047 13.0547 7.58967 13.0547 7.16907V6.29247C13.0547 5.87187 12.7139 5.53107 12.2933 5.53107C11.9465 5.53107 11.6489 5.29347 11.5211 4.97007C11.501 4.91911 11.48 4.86851 11.4581 4.81827C11.3201 4.49967 11.3621 4.12107 11.6075 3.87507C11.75 3.73222 11.8301 3.53866 11.8301 3.33687C11.8301 3.13508 11.75 2.94152 11.6075 2.79867L10.9871 2.17827C10.8442 2.03574 10.6507 1.9557 10.4489 1.9557C10.2471 1.9557 10.0535 2.03574 9.91069 2.17827C9.66469 2.42427 9.28669 2.46627 8.96749 2.32767C8.91725 2.3056 8.86665 2.2844 8.81569 2.26407C8.49229 2.13627 8.25469 1.83807 8.25469 1.49187Z" stroke="black" stroke-opacity="0.66"/>
<path d="M9.45234 6.73008C9.45234 7.3666 9.19949 7.97705 8.7494 8.42713C8.29931 8.87722 7.68886 9.13008 7.05234 9.13008C6.41582 9.13008 5.80537 8.87722 5.35529 8.42713C4.9052 7.97705 4.65234 7.3666 4.65234 6.73008C4.65234 6.09356 4.9052 5.48311 5.35529 5.03302C5.80537 4.58293 6.41582 4.33008 7.05234 4.33008C7.68886 4.33008 8.29931 4.58293 8.7494 5.03302C9.19949 5.48311 9.45234 6.09356 9.45234 6.73008Z" stroke="black" stroke-opacity="0.66"/>
</svg>
