<svg width="6" height="6" viewBox="0 0 6 6" fill="none" xmlns="http://www.w3.org/2000/svg">
<path d="M3 4.25C3.07083 4.25 3.13025 4.226 3.17825 4.178C3.22625 4.13 3.25017 4.07067 3.25 4V3C3.25 2.92917 3.226 2.86983 3.178 2.822C3.13 2.77417 3.07067 2.75017 3 2.75C2.92933 2.74983 2.87 2.77383 2.822 2.822C2.774 2.87017 2.75 2.9295 2.75 3V4C2.75 4.07083 2.774 4.13025 2.822 4.17825C2.87 4.22625 2.92933 4.25017 3 4.25ZM3 2.25C3.07083 2.25 3.13025 2.226 3.17825 2.178C3.22625 2.13 3.25017 2.07067 3.25 2C3.24983 1.92933 3.22583 1.87 3.178 1.822C3.13017 1.774 3.07083 1.75 3 1.75C2.92917 1.75 2.86983 1.774 2.822 1.822C2.77417 1.87 2.75017 1.92933 2.75 2C2.74983 2.07067 2.77383 2.13008 2.822 2.17825C2.87017 2.22642 2.9295 2.25033 3 2.25ZM3 5.5C2.65417 5.5 2.32917 5.43433 2.025 5.303C1.72083 5.17167 1.45625 4.99358 1.23125 4.76875C1.00625 4.54392 0.828167 4.27933 0.697 3.975C0.565834 3.67067 0.500167 3.34567 0.5 3C0.499834 2.65433 0.5655 2.32933 0.697 2.025C0.8285 1.72067 1.00658 1.45608 1.23125 1.23125C1.45592 1.00642 1.7205 0.828333 2.025 0.697C2.3295 0.565667 2.6545 0.5 3 0.5C3.3455 0.5 3.6705 0.565667 3.975 0.697C4.2795 0.828333 4.54408 1.00642 4.76875 1.23125C4.99342 1.45608 5.17158 1.72067 5.30325 2.025C5.43492 2.32933 5.5005 2.65433 5.5 3C5.4995 3.34567 5.43383 3.67067 5.303 3.975C5.17217 4.27933 4.99408 4.54392 4.76875 4.76875C4.54342 4.99358 4.27883 5.17175 3.975 5.30325C3.67117 5.43475 3.34617 5.50033 3 5.5ZM3 5C3.55833 5 4.03125 4.80625 4.41875 4.41875C4.80625 4.03125 5 3.55833 5 3C5 2.44167 4.80625 1.96875 4.41875 1.58125C4.03125 1.19375 3.55833 1 3 1C2.44167 1 1.96875 1.19375 1.58125 1.58125C1.19375 1.96875 1 2.44167 1 3C1 3.55833 1.19375 4.03125 1.58125 4.41875C1.96875 4.80625 2.44167 5 3 5Z" fill="#323235"/>
</svg>
