<svg width="7" height="7" viewBox="0 0 7 7" fill="none" xmlns="http://www.w3.org/2000/svg">
<path d="M1.34361 5.37437H4.15611C4.27487 5.37441 4.38919 5.41953 4.47598 5.50061C4.56276 5.58169 4.61553 5.69269 4.62362 5.81117C4.63172 5.92966 4.59454 6.04681 4.51959 6.13894C4.44464 6.23107 4.33751 6.29131 4.21986 6.3075L4.15611 6.31187H1.34361C1.22484 6.31184 1.11052 6.26672 1.02374 6.18564C0.936956 6.10456 0.884186 5.99356 0.876091 5.87508C0.867996 5.75659 0.905179 5.63944 0.980127 5.54731C1.05508 5.45518 1.1622 5.39494 1.27986 5.37875L1.34361 5.37437ZM2.26236 1.76187C2.3418 1.68258 2.44706 1.63443 2.55901 1.62617C2.67095 1.61791 2.78214 1.6501 2.87236 1.71687L2.92486 1.7625L5.11236 3.95C5.19546 4.03375 5.24392 4.14576 5.24807 4.26366C5.25222 4.38157 5.21176 4.49671 5.13476 4.58609C5.05776 4.67548 4.94988 4.73255 4.83266 4.7459C4.71543 4.75925 4.59749 4.72791 4.50236 4.65812L4.44986 4.6125L2.26236 2.425C2.17458 2.33711 2.12527 2.21797 2.12527 2.09375C2.12527 1.96953 2.17458 1.84977 2.26236 1.76187ZM6.34361 0.375C6.45688 0.375005 6.56632 0.416027 6.65169 0.490479C6.73706 0.564932 6.79258 0.667779 6.80798 0.78L6.81236 0.84375V3.65625C6.81232 3.77501 6.7672 3.88934 6.68612 3.97612C6.60504 4.0629 6.49405 4.11567 6.37556 4.12377C6.25707 4.13186 6.13992 4.09468 6.0478 4.01973C5.95567 3.94478 5.89542 3.83766 5.87923 3.72L5.87486 3.65625V0.84375C5.87486 0.71943 5.92424 0.600201 6.01215 0.512294C6.10006 0.424386 6.21929 0.375 6.34361 0.375Z" fill="black"/>
</svg>
