<svg width="10" height="10" viewBox="0 0 10 10" fill="none" xmlns="http://www.w3.org/2000/svg">
<g clip-path="url(#clip0_848_12258)">
<path d="M2.5 4.58594C2.5 3.4076 2.5 2.81802 2.86625 2.45219C3.23208 2.08594 3.82167 2.08594 5 2.08594H6.25C7.42833 2.08594 8.01792 2.08594 8.38375 2.45219C8.75 2.81802 8.75 3.4076 8.75 4.58594V6.66927C8.75 7.8476 8.75 8.43719 8.38375 8.80302C8.01792 9.16927 7.42833 9.16927 6.25 9.16927H5C3.82167 9.16927 3.23208 9.16927 2.86625 8.80302C2.5 8.43719 2.5 7.8476 2.5 6.66927V4.58594Z" stroke="white" stroke-width="0.81"/>
<path d="M2.5 7.91927C2.16848 7.91927 1.85054 7.78757 1.61612 7.55315C1.3817 7.31873 1.25 7.00079 1.25 6.66927V4.16927C1.25 2.59802 1.25 1.81219 1.73833 1.32427C2.22667 0.836354 3.01208 0.835938 4.58333 0.835938H6.25C6.58152 0.835938 6.89946 0.967634 7.13388 1.20205C7.3683 1.43647 7.5 1.75442 7.5 2.08594" stroke="white" stroke-width="0.81"/>
</g>
<defs>
<clipPath id="clip0_848_12258">
<rect width="10" height="10" fill="white"/>
</clipPath>
</defs>
</svg>
