<svg width="16" height="16" viewBox="0 0 16 16" fill="none" xmlns="http://www.w3.org/2000/svg">
<path d="M0.650391 4.66675C0.650391 3.55564 1.04217 2.60853 1.82572 1.82541C2.60928 1.0423 3.55639 0.650303 4.66706 0.649414V2.00008C3.93372 2.00008 3.30595 2.26119 2.78372 2.78341C2.2615 3.30564 2.00039 3.93341 2.00039 4.66675H0.650391ZM3.53372 12.4834C2.52261 11.4723 2.01706 10.2556 2.01706 8.83341C2.01706 7.41119 2.52261 6.19453 3.53372 5.18341L4.70039 4.00008L4.90039 4.20008C5.22261 4.5223 5.38372 4.91386 5.38372 5.37475C5.38372 5.83564 5.22261 6.22764 4.90039 6.55075L4.66706 6.78408C4.53372 6.91741 4.46706 7.07586 4.46706 7.25941C4.46706 7.44297 4.53372 7.60119 4.66706 7.73408L5.26706 8.33408C5.55595 8.62297 5.70039 8.97297 5.70039 9.38408C5.70039 9.79519 5.55595 10.145 5.26706 10.4334L5.98372 11.1501C6.47261 10.6612 6.71706 10.0752 6.71706 9.39208C6.71706 8.70897 6.46706 8.11719 5.96706 7.61675L5.60039 7.25008C5.88928 6.96119 6.09483 6.63608 6.21706 6.27475C6.33928 5.91341 6.38928 5.54408 6.36706 5.16675L9.35039 2.18341C9.48372 2.05008 9.64217 1.98341 9.82572 1.98341C10.0093 1.98341 10.1675 2.05008 10.3004 2.18341C10.4333 2.31675 10.4999 2.47497 10.5004 2.65808C10.5008 2.84119 10.4342 2.99964 10.3004 3.13341L7.18372 6.25008L7.88372 6.95008L11.9004 2.95008C12.0337 2.81675 12.1893 2.75008 12.3671 2.75008C12.5448 2.75008 12.7004 2.81675 12.8337 2.95008C12.9671 3.08341 13.0337 3.23897 13.0337 3.41675C13.0337 3.59453 12.9671 3.75008 12.8337 3.88341L8.83372 7.90008L9.53372 8.60008L13.0671 5.06675C13.2004 4.93341 13.3588 4.86675 13.5424 4.86675C13.7259 4.86675 13.8842 4.93341 14.0171 5.06675C14.1499 5.20008 14.2166 5.35853 14.2171 5.54208C14.2175 5.72564 14.1508 5.88386 14.0171 6.01675L10.4837 9.55008L11.1837 10.2501L13.8837 7.55008C14.0171 7.41675 14.1755 7.35008 14.3591 7.35008C14.5426 7.35008 14.7008 7.41675 14.8337 7.55008C14.9666 7.68341 15.0333 7.84186 15.0337 8.02541C15.0342 8.20897 14.9675 8.36719 14.8337 8.50008L10.8337 12.4834C9.82261 13.4945 8.60595 14.0001 7.18372 14.0001C5.7615 14.0001 4.54484 13.4945 3.53372 12.4834ZM11.3337 15.3501V14.0001C12.0671 14.0001 12.6948 13.739 13.2171 13.2167C13.7393 12.6945 14.0004 12.0667 14.0004 11.3334H15.3504C15.3504 12.4445 14.9586 13.3919 14.1751 14.1754C13.3915 14.959 12.4444 15.3505 11.3337 15.3501Z" fill="white"/>
</svg>
