<svg width="12" height="12" viewBox="0 0 12 12" fill="none" xmlns="http://www.w3.org/2000/svg">
<path d="M5.75983 0.561503C5.93421 0.465855 6.15289 0.481742 6.31257 0.609355L11.3126 4.60935L11.3848 4.68064C11.5335 4.85938 11.5416 5.12386 11.3907 5.31248C11.2397 5.50117 10.9796 5.55136 10.7725 5.44529L10.6876 5.3906L10.2501 5.04002V10.75C10.2501 10.9918 10.0787 11.1938 9.85065 11.2402L9.75007 11.25H2.25007C2.00849 11.2499 1.80735 11.0784 1.76081 10.8506L1.75007 10.75V5.04002L1.31257 5.3906C1.09694 5.56301 0.78192 5.52808 0.609444 5.31248C0.437123 5.09689 0.47209 4.78183 0.687569 4.60935L5.68757 0.609355L5.75983 0.561503ZM2.75007 4.24021V10.25H4.25007V6.24998L4.25983 6.14939C4.30636 5.92152 4.50848 5.7501 4.75007 5.74998H7.25007L7.35065 5.75975C7.57859 5.80627 7.75003 6.0083 7.75007 6.24998V10.25H9.25007V4.24021L6.00007 1.6406L2.75007 4.24021ZM5.25007 10.25H6.75007V6.74998H5.25007V10.25Z" fill="white" fill-opacity="1"/>
</svg>
